<?xml version="1.0" encoding="UTF-8"?>
<!DOCTYPE svg PUBLIC "-//W3C//DTD SVG 1.1//EN" "http://www.w3.org/Graphics/SVG/1.1/DTD/svg11.dtd">
<svg width="160mm" height="90mm" viewBox="0 0 16000 9000" version="1.1" xmlns="http://www.w3.org/2000/svg" stroke-width="28.222" stroke-linejoin="round" xml:space="preserve">
 <path fill="rgb(255,255,255)" stroke="none" d="M 8000,8998 L 0,8998 0,-1 15999,-1 15999,8998 8000,8998 Z"/>
 <path fill="none" stroke="rgb(179,179,179)" stroke-linejoin="round" d="M 8960,6440 L 2923,6440 2923,375 14998,375 14998,6440 8960,6440 Z"/>
 <path fill="none" stroke="rgb(179,179,179)" stroke-linejoin="round" d="M 14998,6439 L 2923,6439"/>
 <path fill="none" stroke="rgb(179,179,179)" stroke-linejoin="round" d="M 14998,5680 L 2923,5680"/>
 <path fill="none" stroke="rgb(179,179,179)" stroke-linejoin="round" d="M 14998,4922 L 2923,4922"/>
 <path fill="none" stroke="rgb(179,179,179)" stroke-linejoin="round" d="M 14998,4165 L 2923,4165"/>
 <path fill="none" stroke="rgb(179,179,179)" stroke-linejoin="round" d="M 14998,3407 L 2923,3407"/>
 <path fill="none" stroke="rgb(179,179,179)" stroke-linejoin="round" d="M 14998,2648 L 2923,2648"/>
 <path fill="none" stroke="rgb(179,179,179)" stroke-linejoin="round" d="M 14998,1890 L 2923,1890"/>
 <path fill="none" stroke="rgb(179,179,179)" stroke-linejoin="round" d="M 14998,1132 L 2923,1132"/>
 <path fill="none" stroke="rgb(179,179,179)" stroke-linejoin="round" d="M 14998,374 L 2923,374"/>
 <path fill="none" stroke="rgb(179,179,179)" stroke-linejoin="round" d="M 2923,6589 L 2923,6439"/>
 <path fill="none" stroke="rgb(179,179,179)" stroke-linejoin="round" d="M 2923,6589 L 2923,6439"/>
 <path fill="none" stroke="rgb(179,179,179)" stroke-linejoin="round" d="M 4130,6589 L 4130,6439"/>
 <path fill="none" stroke="rgb(179,179,179)" stroke-linejoin="round" d="M 4130,6589 L 4130,6439"/>
 <path fill="none" stroke="rgb(179,179,179)" stroke-linejoin="round" d="M 5338,6589 L 5338,6439"/>
 <path fill="none" stroke="rgb(179,179,179)" stroke-linejoin="round" d="M 5338,6589 L 5338,6439"/>
 <path fill="none" stroke="rgb(179,179,179)" stroke-linejoin="round" d="M 6545,6589 L 6545,6439"/>
 <path fill="none" stroke="rgb(179,179,179)" stroke-linejoin="round" d="M 6545,6589 L 6545,6439"/>
 <path fill="none" stroke="rgb(179,179,179)" stroke-linejoin="round" d="M 7753,6589 L 7753,6439"/>
 <path fill="none" stroke="rgb(179,179,179)" stroke-linejoin="round" d="M 7753,6589 L 7753,6439"/>
 <path fill="none" stroke="rgb(179,179,179)" stroke-linejoin="round" d="M 8960,6589 L 8960,6439"/>
 <path fill="none" stroke="rgb(179,179,179)" stroke-linejoin="round" d="M 8960,6589 L 8960,6439"/>
 <path fill="none" stroke="rgb(179,179,179)" stroke-linejoin="round" d="M 10167,6589 L 10167,6439"/>
 <path fill="none" stroke="rgb(179,179,179)" stroke-linejoin="round" d="M 10167,6589 L 10167,6439"/>
 <path fill="none" stroke="rgb(179,179,179)" stroke-linejoin="round" d="M 11375,6589 L 11375,6439"/>
 <path fill="none" stroke="rgb(179,179,179)" stroke-linejoin="round" d="M 11375,6589 L 11375,6439"/>
 <path fill="none" stroke="rgb(179,179,179)" stroke-linejoin="round" d="M 12582,6589 L 12582,6439"/>
 <path fill="none" stroke="rgb(179,179,179)" stroke-linejoin="round" d="M 12582,6589 L 12582,6439"/>
 <path fill="none" stroke="rgb(179,179,179)" stroke-linejoin="round" d="M 13790,6589 L 13790,6439"/>
 <path fill="none" stroke="rgb(179,179,179)" stroke-linejoin="round" d="M 13790,6589 L 13790,6439"/>
 <path fill="none" stroke="rgb(179,179,179)" stroke-linejoin="round" d="M 14998,6589 L 14998,6439"/>
 <path fill="none" stroke="rgb(179,179,179)" stroke-linejoin="round" d="M 14998,6589 L 14998,6439"/>
 <path fill="none" stroke="rgb(179,179,179)" stroke-linejoin="round" d="M 2923,6439 L 14998,6439"/>
 <path fill="none" stroke="rgb(179,179,179)" stroke-linejoin="round" d="M 2773,6439 L 2923,6439"/>
 <path fill="none" stroke="rgb(179,179,179)" stroke-linejoin="round" d="M 2773,6439 L 2923,6439"/>
 <path fill="none" stroke="rgb(179,179,179)" stroke-linejoin="round" d="M 2773,5680 L 2923,5680"/>
 <path fill="none" stroke="rgb(179,179,179)" stroke-linejoin="round" d="M 2773,5680 L 2923,5680"/>
 <path fill="none" stroke="rgb(179,179,179)" stroke-linejoin="round" d="M 2773,4922 L 2923,4922"/>
 <path fill="none" stroke="rgb(179,179,179)" stroke-linejoin="round" d="M 2773,4922 L 2923,4922"/>
 <path fill="none" stroke="rgb(179,179,179)" stroke-linejoin="round" d="M 2773,4165 L 2923,4165"/>
 <path fill="none" stroke="rgb(179,179,179)" stroke-linejoin="round" d="M 2773,4165 L 2923,4165"/>
 <path fill="none" stroke="rgb(179,179,179)" stroke-linejoin="round" d="M 2773,3407 L 2923,3407"/>
 <path fill="none" stroke="rgb(179,179,179)" stroke-linejoin="round" d="M 2773,3407 L 2923,3407"/>
 <path fill="none" stroke="rgb(179,179,179)" stroke-linejoin="round" d="M 2773,2648 L 2923,2648"/>
 <path fill="none" stroke="rgb(179,179,179)" stroke-linejoin="round" d="M 2773,2648 L 2923,2648"/>
 <path fill="none" stroke="rgb(179,179,179)" stroke-linejoin="round" d="M 2773,1890 L 2923,1890"/>
 <path fill="none" stroke="rgb(179,179,179)" stroke-linejoin="round" d="M 2773,1890 L 2923,1890"/>
 <path fill="none" stroke="rgb(179,179,179)" stroke-linejoin="round" d="M 2773,1132 L 2923,1132"/>
 <path fill="none" stroke="rgb(179,179,179)" stroke-linejoin="round" d="M 2773,1132 L 2923,1132"/>
 <path fill="none" stroke="rgb(179,179,179)" stroke-linejoin="round" d="M 2773,374 L 2923,374"/>
 <path fill="none" stroke="rgb(179,179,179)" stroke-linejoin="round" d="M 2773,374 L 2923,374"/>
 <path fill="none" stroke="rgb(179,179,179)" stroke-linejoin="round" d="M 2923,6439 L 2923,374"/>
 <path fill="none" stroke="rgb(87,157,28)" stroke-width="80" stroke-linejoin="round" d="M 2924,6308 L 2925,6191 2926,6097 2927,6065 2929,6038 2930,6016 2931,5996 2932,5976 2933,5965 2935,5954 2936,5944 2937,5935 2938,5925 2939,5916 2941,5906 2942,5897 2943,5888 2944,5880 2945,5871 2947,5863 2948,5854 2949,5846 2950,5838 2951,5830 2954,5815 2955,5807 2956,5800 2958,5793 2959,5787 2960,5780 2961,5774 2962,5768 2965,5755 2966,5749 2967,5743 2968,5738 2970,5732 2972,5721 2974,5711 2976,5706 2978,5696 2980,5686 2983,5677 2985,5667 2988,5658 2989,5654 2991,5645 2994,5636 2995,5632 2997,5624 3000,5616 3002,5607 3005,5600 3007,5592 3011,5580 3013,5573 3015,5565 3019,5555 3020,5551 3022,5548 3025,5538 3029,5528 3032,5519 3035,5513 3037,5506 3038,5503 3042,5494 3046,5485 3047,5482 3049,5477 3053,5468 3055,5462 3057,5459 3060,5451 3064,5442 3065,5440 3069,5432 3072,5424 3077,5414 3081,5406 3082,5404 3086,5396 3089,5389 3090,5386 3094,5379 3099,5369 3102,5363 3107,5353 3108,5351 3112,5344 3117,5335 3122,5327 3125,5320 3127,5318 3131,5309 3134,5305 3136,5301 3141,5292 3143,5288 3147,5282 3152,5273 3157,5265 3160,5259 3162,5257 3168,5247 3170,5242 3172,5238 3177,5230 3179,5228 3183,5220 3187,5215 3188,5213 3194,5203 3195,5201 3200,5193 3205,5186 3211,5177 3214,5173 3217,5167 3222,5160 3223,5158 3229,5149 3232,5146 3234,5142 3240,5134 3247,5123 3249,5121 3253,5114 3257,5109 3259,5106 3265,5097 3267,5096 3271,5089 3275,5084 3278,5080 3284,5072 3291,5062 3293,5058 3297,5053 3302,5047 3303,5045 3310,5035 3316,5027 3319,5024 3323,5018 3328,5011 3329,5010 3337,5000 3343,4992 3345,4989 3350,4983 3355,4977 3357,4974 3363,4966 3364,4965 3371,4957 3372,4956 3378,4948 3381,4944 3385,4939 3390,4933 3392,4930 3398,4923 3400,4922 3407,4913 3414,4904 3416,4901 3422,4894 3425,4892 3430,4886 3433,4882 3437,4878 3443,4871 3445,4868 3451,4861 3453,4859 3460,4851 3468,4841 3476,4833 3478,4831 3484,4824 3486,4821 3491,4816 3495,4812 3500,4807 3505,4801 3508,4797 3513,4792 3515,4790 3521,4783 3524,4781 3530,4774 3532,4772 3540,4764 3541,4763 3548,4755 3549,4754 3556,4746 3558,4745 3566,4736 3575,4727 3583,4718 3592,4710 3600,4701 3601,4700 3610,4692 3618,4683 3627,4675 3628,4674 3636,4666 3645,4657 3653,4649 3654,4648 3663,4640 3664,4639 3671,4632 3672,4631 3680,4624 3682,4622 3689,4615 3692,4613 3698,4607 3701,4604 3706,4600 3711,4595 3715,4592 3721,4587 3724,4583 3730,4578 3733,4576 3741,4568 3751,4560 3759,4552 3761,4551 3768,4545 3770,4543 3776,4538 3781,4533 3786,4529 3791,4525 3794,4522 3802,4516 3803,4514 3811,4507 3813,4506 3821,4499 3822,4499 3829,4493 3832,4491 3839,4485 3843,4482 3848,4478 3854,4472 3856,4470 3863,4464 3864,4463 3874,4455 3883,4448 3885,4446 3891,4441 3896,4437 3901,4433 3907,4428 3909,4426 3916,4420 3918,4419 3926,4413 3928,4411 3936,4405 3939,4402 3944,4398 3950,4393 3953,4391 3961,4385 3962,4384 3971,4377 3972,4376 3979,4370 3983,4368 3988,4364 3995,4358 3997,4356 4006,4350 4014,4343 4018,4340 4024,4336 4029,4332 4032,4329 4041,4323 4049,4316 4052,4314 4059,4309 4064,4305 4067,4302 4075,4297 4076,4296 4085,4289 4087,4288 4094,4282 4099,4279 4102,4276 4111,4270 4120,4262 4122,4262 4129,4256 4134,4253 4137,4250 4146,4244 4147,4243 4155,4237 4158,4235 4164,4230 4170,4226 4172,4224 4182,4217 4190,4211 4194,4209 4199,4205 4206,4200 4209,4198 4217,4192 4219,4191 4226,4186 4232,4182 4235,4180 4244,4174 4245,4173 4252,4168 4257,4164 4261,4162 4269,4156 4270,4155 4279,4149 4282,4147 4287,4143 4296,4138 4297,4137 4305,4131 4308,4129 4314,4125 4321,4120 4322,4119 4332,4113 4334,4111 4340,4107 4346,4103 4349,4101 4358,4095 4360,4094 4367,4089 4373,4085 4375,4084 4384,4078 4386,4076 4393,4072 4399,4068 4402,4066 4410,4061 4414,4058 4420,4054 4427,4050 4428,4049 4437,4043 4440,4041 4445,4038 4454,4032 4455,4032 4463,4026 4468,4023 4472,4021 4482,4015 4490,4010 4496,4006 4498,4004 4507,3999 4510,3997 4517,3993 4524,3988 4525,3988 4533,3982 4538,3979 4543,3976 4552,3971 4553,3971 4560,3966 4567,3962 4568,3961 4578,3955 4582,3953 4587,3950 4595,3945 4596,3944 4605,3939 4611,3935 4613,3934 4622,3928 4625,3926 4630,3923 4640,3918 4648,3913 4654,3909 4657,3908 4666,3902 4670,3900 4675,3897 4683,3892 4684,3891 4693,3886 4700,3882 4701,3881 4710,3876 4715,3874 4718,3872 4728,3866 4730,3865 4736,3861 4745,3856 4746,3856 4754,3851 4762,3847 4763,3846 4771,3841 4777,3838 4780,3837 4789,3831 4793,3829 4798,3826 4806,3822 4809,3820 4816,3816 4824,3812 4833,3807 4840,3803 4841,3802 4851,3797 4857,3794 4859,3792 4868,3788 4873,3785 4878,3783 4886,3778 4888,3777 4895,3773 4903,3769 4905,3768 4913,3764 4921,3759 4930,3755 4938,3750 4939,3749 4948,3745 4955,3741 4956,3741 4965,3736 4972,3732 4974,3731 4983,3727 4989,3724 4991,3722 5001,3717 5006,3715 5009,3713 5018,3709 5023,3706 5026,3704 5036,3699 5039,3697 5044,3695 5053,3690 5056,3688 5062,3685 5071,3681 5074,3679 5079,3677 5089,3672 5091,3671 5097,3668 5106,3664 5109,3662 5114,3659 5124,3655 5126,3653 5132,3650 5141,3646 5144,3644 5151,3641 5159,3637 5163,3635 5167,3633 5176,3629 5181,3626 5186,3624 5194,3620 5199,3618 5202,3616 5212,3611 5217,3609 5221,3607 5229,3603 5235,3600 5237,3599 5247,3594 5253,3591 5256,3590 5264,3586 5271,3583 5274,3581 5282,3577 5291,3573 5299,3569 5309,3565 5317,3561 5326,3557 5328,3556 5335,3553 5344,3549 5346,3548 5352,3545 5361,3541 5365,3538 5370,3536 5379,3532 5385,3529 5387,3528 5397,3524 5403,3521 5405,3520 5414,3516 5422,3512 5432,3508 5440,3504 5442,3503 5449,3500 5458,3496 5461,3494 5467,3492 5475,3488 5480,3486 5484,3484 5493,3480 5500,3477 5502,3476 5510,3472 5520,3468 5529,3464 5537,3460 5539,3459 5547,3456 5555,3452 5560,3450 5564,3449 5572,3445 5580,3441 5582,3441 5590,3437 5599,3433 5600,3433 5608,3429 5617,3425 5620,3424 5625,3422 5634,3418 5641,3415 5643,3414 5652,3410 5660,3407 5661,3406 5670,3402 5678,3399 5682,3397 5687,3395 5695,3392 5702,3389 5705,3388 5713,3384 5722,3381 5724,3380 5731,3377 5740,3373 5745,3371 5748,3370 5757,3366 5765,3362 5766,3362 5775,3358 5783,3355 5787,3353 5793,3351 5801,3347 5807,3345 5810,3344 5818,3340 5828,3336 5829,3336 5836,3333 5845,3329 5851,3327 5855,3325 5863,3322 5871,3318 5873,3318 5880,3315 5890,3311 5894,3309 5898,3308 5906,3304 5916,3300 5925,3297 5933,3294 5938,3292 5942,3290 5951,3286 5960,3283 5968,3280 5978,3276 5983,3274 5986,3272 5995,3269 6004,3265 6013,3262 6021,3258 6026,3256 6030,3255 6039,3251 6048,3248 6049,3247 6056,3245 6066,3241 6071,3239 6074,3237 6083,3234 6091,3231 6094,3230 6101,3227 6109,3224 6117,3221 6118,3221 6127,3217 6136,3214 6141,3212 6144,3211 6153,3207 6162,3204 6164,3203 6171,3201 6179,3197 6187,3195 6189,3194 6198,3191 6206,3187 6210,3186 6214,3184 6224,3180 6233,3177 6234,3177 6241,3174 6251,3171 6257,3168 6259,3167 6268,3164 6276,3161 6280,3160 6286,3157 6294,3154 6303,3151 6304,3151 6312,3147 6321,3144 6327,3142 6329,3141 6338,3138 6347,3134 6351,3133 6356,3131 6364,3128 6374,3125 6375,3124 6382,3122 6391,3118 6399,3115 6400,3115 6409,3112 6417,3109 6423,3107 6426,3106 6435,3102 6444,3099 6449,3098 6452,3096 6462,3093 6470,3090 6473,3089 6479,3087 6487,3084 6497,3080 6498,3080 6505,3077 6514,3074 6522,3071 6524,3071 6532,3068 6540,3065 6548,3062 6549,3062 6559,3058 6567,3056 6572,3054 6575,3053 6585,3049 6594,3046 6597,3045 6602,3043 6611,3040 6620,3037 6623,3036 6629,3034 6637,3031 6647,3028 6648,3027 6655,3024 6664,3022 6672,3019 6673,3018 6682,3015 6690,3012 6699,3010 6708,3006 6717,3003 6724,3001 6725,3000 6734,2997 6743,2994 6749,2992 6752,2991 6760,2988 6770,2985 6776,2983 6778,2982 6787,2979 6795,2977 6803,2974 6805,2973 6813,2971 6822,2968 6828,2966 6832,2964 6840,2962 6848,2959 6854,2957 6858,2955 6867,2952 6875,2950 6881,2948 6883,2947 6893,2944 6902,2941 6908,2939 6910,2938 6920,2935 6928,2932 6934,2930 6937,2929 6945,2927 6955,2923 6961,2921 6963,2921 6972,2918 6981,2915 6987,2913 6990,2912 6998,2909 7007,2906 7014,2904 7016,2903 7025,2900 7033,2898 7042,2895 7043,2894 7051,2892 7060,2889 7068,2886 7078,2883 7086,2880 7095,2878 7096,2877 7104,2875 7113,2872 7121,2869 7124,2868 7130,2866 7139,2863 7148,2860 7150,2860 7156,2858 7166,2855 7174,2852 7178,2851 7183,2849 7191,2847 7201,2843 7206,2842 7209,2841 7218,2838 7228,2835 7234,2833 7236,2832 7245,2830 7254,2827 7261,2824 7263,2824 7271,2821 7280,2819 7289,2815 7298,2813 7306,2810 7316,2807 7317,2807 7324,2805 7333,2802 7341,2799 7345,2798 7351,2796 7359,2794 7368,2791 7374,2789 7377,2788 7386,2785 7394,2783 7403,2780 7412,2777 7421,2775 7429,2772 7430,2772 7439,2769 7447,2766 7456,2764 7459,2763 7464,2761 7474,2758 7482,2755 7487,2754 7491,2753 7501,2750 7509,2747 7517,2745 7526,2742 7536,2739 7544,2737 7546,2736 7552,2734 7562,2731 7571,2729 7575,2727 7579,2726 7587,2724 7597,2721 7604,2719 7606,2718 7614,2716 7624,2713 7632,2710 7633,2710 7641,2708 7649,2705 7659,2702 7664,2701 7667,2700 7676,2697 7685,2694 7694,2692 7702,2690 7712,2687 7720,2684 7724,2683 7729,2682 7737,2679 7747,2676 7753,2675 7755,2674 7764,2671 7773,2669 7782,2666 7783,2666 7790,2664 7799,2661 7808,2658 7813,2657 7817,2656 7825,2653 7835,2650 7843,2648 7852,2645 7860,2643 7870,2640 7872,2639 7878,2638 7887,2635 7897,2632 7903,2630 7905,2630 7914,2627 7922,2625 7932,2622 7933,2622 7940,2619 7949,2617 7958,2614 7963,2613 7967,2612 7975,2609 7984,2607 7993,2604 8001,2602 8009,2599 8019,2596 8024,2595 8027,2594 8036,2592 8044,2589 8054,2586 8062,2584 8071,2582 8080,2579 8085,2577 8089,2576 8097,2574 8107,2571 8115,2569 8124,2566 8132,2564 8142,2561 8147,2560 8150,2559 8159,2556 8169,2554 8177,2551 8185,2549 8194,2546 8204,2544 8208,2542 8212,2541 8220,2539 8230,2536 8239,2534 8240,2534 8247,2532 8255,2529 8265,2526 8271,2525 8274,2524 8282,2522 8292,2519 8300,2517 8303,2516 8309,2514 8317,2512 8327,2509 8335,2507 8344,2504 8353,2502 8362,2499 8367,2498 8370,2497 8379,2495 8388,2492 8397,2490 8399,2489 8405,2488 8415,2485 8423,2483 8431,2481 8432,2480 8440,2478 8450,2475 8458,2473 8463,2472 8467,2471 8476,2468 8485,2466 8493,2463 8495,2463 8502,2461 8511,2458 8520,2456 8527,2454 8528,2454 8538,2451 8547,2449 8555,2447 8560,2445 8565,2444 8573,2442 8582,2439 8590,2437 8591,2437 8600,2434 8608,2432 8617,2430 8625,2428 8626,2427 8635,2425 8643,2423 8652,2420 8658,2419 8661,2418 8670,2415 8678,2413 8688,2411 8690,2410 8696,2408 8705,2406 8713,2404 8723,2401 8731,2399 8740,2397 8749,2394 8757,2392 8758,2392 8766,2390 8775,2387 8784,2385 8789,2384 8793,2383 8801,2380 8811,2378 8819,2376 8823,2375 8828,2374 8836,2371 8846,2369 8854,2366 8856,2366 8863,2364 8873,2362 8881,2359 8889,2357 8898,2355 8908,2352 8916,2350 8923,2348 8924,2348 8934,2345 8943,2343 8951,2341 8957,2339 8960,2339 8969,2336 8978,2334 8986,2332 8991,2331 8996,2330 9004,2327 9013,2325 9022,2323 9025,2322 9031,2320 9039,2318 9048,2316 9057,2314 9060,2313 9066,2311 9074,2309 9084,2307 9092,2305 9095,2304 9101,2303 9109,2300 9119,2298 9127,2296 9129,2295 9136,2294 9145,2291 9154,2289 9162,2287 9164,2286 9171,2285 9180,2282 9189,2280 9197,2278 9207,2275 9216,2273 9224,2271 9232,2269 9242,2267 9251,2264 9259,2262 9267,2260 9269,2260 9277,2258 9286,2256 9294,2254 9302,2251 9304,2251 9312,2249 9321,2247 9330,2244 9337,2243 9339,2242 9347,2240 9356,2238 9365,2236 9374,2234 9382,2232 9392,2229 9400,2227 9409,2225 9418,2222 9427,2220 9435,2218 9444,2216 9453,2214 9462,2212 9470,2210 9480,2207 9488,2205 9497,2203 9505,2201 9515,2199 9523,2196 9532,2194 9542,2192 9550,2190 9551,2190 9558,2188 9567,2186 9577,2183 9585,2181 9586,2181 9593,2179 9603,2177 9612,2175 9620,2173 9622,2172 9629,2171 9638,2168 9647,2166 9655,2164 9659,2163 9665,2162 9673,2160 9682,2158 9690,2155 9695,2154 9700,2153 9708,2151 9717,2149 9726,2147 9731,2146 9735,2145 9743,2143 9752,2141 9761,2138 9767,2137 9770,2136 9778,2134 9788,2132 9796,2130 9804,2128 9805,2128 9813,2126 9823,2123 9831,2121 9840,2119 9841,2119 9850,2117 9858,2115 9866,2113 9876,2111 9877,2110 9885,2109 9893,2106 9901,2104 9911,2102 9914,2102 9920,2100 9928,2098 9938,2096 9946,2094 9951,2093 9955,2092 9963,2090 9973,2087 9981,2085 9987,2084 9990,2083 9999,2081 10008,2079 10016,2077 10023,2075 10025,2075 10034,2073 10043,2071 10051,2069 10061,2066 10062,2066 10069,2064 10078,2062 10086,2060 10096,2058 10099,2057 10104,2056 10113,2054 10122,2052 10131,2050 10137,2049 10139,2048 10148,2046 10157,2044 10166,2042 10174,2040 10184,2038 10192,2036 10201,2034 10209,2032 10213,2031 10219,2029 10227,2028 10236,2026 10246,2023 10252,2022 10254,2021 10263,2019 10272,2017 10281,2015 10289,2013 10298,2011 10307,2009 10316,2007 10324,2005 10328,2004 10334,2003 10342,2001 10351,1999 10359,1997 10366,1996 10369,1995 10377,1993 10386,1991 10395,1989 10404,1987 10412,1985 10421,1983 10430,1981 10439,1979 10444,1978 10447,1977 10457,1975 10465,1973 10474,1971 10482,1969 10492,1967 10500,1965 10509,1963 10519,1961 10521,1960 10527,1959 10535,1957 10544,1955 10554,1953 10560,1952 10562,1951 10570,1949 10580,1947 10589,1945 10597,1943 10598,1943 10605,1941 10615,1939 10624,1937 10632,1935 10638,1934 10642,1933 10650,1931 10659,1929 10667,1927 10677,1925 10685,1923 10694,1921 10703,1919 10712,1917 10717,1916 10720,1915 10730,1913 10738,1912 10747,1910 10755,1908 10756,1907 10765,1906 10773,1904 10782,1902 10791,1900 10796,1899 10800,1898 10808,1896 10817,1894 10826,1892 10835,1890 10836,1890 10843,1888 10853,1886 10861,1884 10870,1882 10876,1881 10878,1881 10888,1879 10896,1877 10905,1875 10915,1873 10917,1872 10923,1871 10932,1869 10940,1867 10950,1865 10957,1863 10958,1863 10967,1861 10976,1859 10985,1857 10993,1855 10997,1855 11002,1853 11011,1851 11020,1849 11028,1848 11037,1846 11038,1846 11046,1844 11055,1842 11063,1840 11073,1838 11078,1837 11081,1836 11090,1834 11099,1832 11108,1830 11116,1829 11117,1828 11126,1826 11134,1825 11143,1823 11151,1821 11160,1819 11161,1819 11169,1817 11178,1815 11188,1813 11196,1811 11200,1811 11204,1810 11213,1808 11223,1806 11231,1804 11239,1802 11242,1802 11249,1800 11258,1798 11266,1796 11274,1794 11282,1793 11284,1792 11293,1791 11301,1789 11311,1787 11319,1785 11324,1784 11328,1783 11336,1782 11346,1779 11354,1778 11363,1776 11365,1775 11372,1774 11381,1772 11389,1770 11398,1768 11407,1766 11416,1765 11424,1763 11434,1761 11442,1759 11448,1758 11451,1757 11459,1755 11469,1753 11477,1752 11486,1750 11491,1749 11495,1748 11504,1746 11512,1744 11521,1742 11530,1741 11533,1740 11539,1739 11547,1737 11557,1735 11566,1733 11574,1731 11575,1731 11584,1729 11592,1728 11601,1726 11609,1724 11617,1722 11619,1722 11627,1720 11636,1719 11645,1717 11654,1715 11661,1714 11662,1713 11671,1712 11680,1710 11689,1708 11697,1706 11704,1705 11707,1704 11715,1703 11724,1701 11732,1699 11742,1697 11749,1696 11750,1696 11759,1694 11768,1692 11777,1690 11785,1688 11791,1687 11794,1687 11803,1685 11812,1683 11820,1681 11830,1679 11835,1678 11838,1678 11847,1676 11855,1674 11865,1672 11873,1671 11878,1670 11882,1669 11892,1667 11900,1665 11908,1664 11917,1662 11923,1661 11927,1660 11935,1658 11943,1657 11953,1655 11962,1653 11969,1652 11970,1652 11979,1650 11988,1648 11997,1646 12005,1645 12012,1643 12015,1643 12023,1641 12032,1639 12041,1637 12050,1636 12057,1634 12058,1634 12067,1632 12076,1630 12085,1629 12093,1627 12100,1625 12103,1625 12111,1623 12120,1622 12128,1620 12138,1618 12145,1617 12146,1616 12155,1615 12164,1613 12173,1611 12181,1609 12189,1608 12190,1608 12199,1606 12208,1604 12216,1602 12226,1601 12235,1599 12243,1597 12251,1596 12261,1594 12270,1592 12278,1590 12279,1590 12288,1588 12296,1587 12305,1585 12313,1583 12323,1581 12324,1581 12331,1580 12340,1578 12349,1576 12358,1575 12366,1573 12369,1572 12375,1571 12384,1569 12393,1568 12401,1566 12411,1564 12413,1564 12419,1563 12428,1561 12437,1559 12446,1557 12454,1556 12459,1555 12463,1554 12472,1552 12481,1551 12489,1549 12499,1547 12505,1546 12507,1545 12516,1544 12524,1542 12534,1540 12542,1539 12550,1537 12551,1537 12561,1535 12569,1534 12577,1532 12586,1530 12596,1528 12604,1527 12612,1525 12622,1523 12631,1522 12639,1520 12641,1520 12648,1519 12657,1517 12666,1515 12674,1513 12684,1512 12687,1511 12692,1510 12701,1508 12709,1507 12719,1505 12727,1503 12733,1502 12736,1502 12745,1500 12754,1498 12762,1497 12771,1495 12780,1493 12789,1492 12797,1490 12807,1488 12815,1487 12824,1485 12827,1484 12832,1483 12842,1482 12850,1480 12859,1479 12869,1477 12876,1475 12877,1475 12885,1474 12895,1472 12904,1470 12912,1469 12920,1467 12923,1467 12930,1465 12939,1464 12947,1462 12957,1460 12965,1459 12970,1458 12974,1457 12982,1456 12992,1454 13000,1452 13009,1451 13017,1449 13018,1449 13027,1447 13035,1446 13044,1444 13053,1442 13062,1441 13064,1440 13070,1439 13080,1437 13088,1436 13097,1434 13105,1433 13112,1431 13115,1431 13123,1429 13132,1428 13141,1426 13150,1424 13158,1423 13160,1423 13167,1421 13176,1420 13185,1418 13193,1417 13203,1415 13208,1414 13211,1413 13220,1412 13228,1410 13238,1408 13246,1407 13255,1405 13256,1405 13265,1403 13273,1402 13282,1400 13291,1399 13300,1397 13306,1396 13308,1396 13317,1394 13326,1392 13335,1391 13343,1389 13353,1388 13354,1387 13361,1386 13370,1384 13378,1383 13388,1381 13396,1380 13402,1379 13405,1378 13414,1376 13423,1375 13431,1373 13440,1372 13449,1370 13451,1370 13458,1369 13466,1367 13476,1365 13484,1364 13493,1362 13500,1361 13501,1361 13511,1359 13519,1357 13528,1356 13538,1354 13546,1353 13548,1352 13554,1351 13563,1349 13573,1348 13581,1346 13589,1345 13598,1343 13599,1343 13608,1342 13616,1340 13624,1339 13634,1337 13643,1335 13649,1334 13651,1334 13661,1332 13669,1331 13678,1329 13686,1328 13696,1326 13699,1326 13704,1325 13713,1323 13722,1322 13731,1320 13739,1319 13749,1317 13757,1315 13766,1314 13774,1312 13784,1311 13792,1309 13800,1308 13801,1308 13810,1306 13819,1305 13827,1303 13836,1302 13845,1300 13850,1299 13854,1299 13862,1297 13872,1295 13880,1294 13889,1293 13897,1291 13902,1290 13907,1289 13915,1288 13924,1287 13934,1285 13942,1283 13951,1282 13953,1282 13959,1280 13969,1279 13977,1277 13986,1276 13995,1274 14004,1273 14012,1271 14021,1270 14030,1268 14039,1267 14047,1265 14056,1264 14057,1264 14065,1262 14074,1261 14082,1259 14092,1258 14100,1256 14106,1255 14109,1255 14118,1253 14127,1252 14135,1250 14145,1249 14153,1247 14158,1246 14162,1246 14170,1244 14180,1243 14188,1241 14197,1240 14207,1238 14210,1238 14215,1237 14223,1235 14232,1234 14242,1232 14250,1231 14258,1229 14263,1229 14268,1228 14277,1226 14285,1225 14293,1224 14303,1222 14312,1221 14316,1220 14320,1219 14330,1218 14338,1216 14347,1215 14355,1213 14365,1212 14370,1211 14373,1210 14382,1209 14391,1207 14400,1206 14408,1205 14417,1203 14423,1202 14426,1202 14435,1200 14443,1199 14453,1197 14461,1196 14470,1194 14477,1193 14478,1193 14488,1191 14496,1190 14505,1189 14514,1187 14523,1186 14530,1185 14531,1184 14540,1183 14549,1181 14558,1180 14566,1179 14576,1177 14585,1176 14586,1176 14593,1174 14603,1173 14611,1172 14620,1170 14628,1169 14638,1167 14640,1167 14646,1166 14655,1165 14664,1163 14673,1162 14681,1160 14690,1159 14696,1158 14699,1158 14708,1156 14716,1155 14726,1153 14734,1152 14743,1151 14751,1150 14752,1149 14761,1148 14769,1147 14778,1145 14787,1144 14796,1143 14804,1141 14810,1140 14813,1140 14822,1139 14831,1137 14839,1136 14849,1135 14857,1133 14866,1132 14868,1132 14874,1131 14884,1129 14892,1128 14901,1127 14911,1125 14919,1124 14927,1123 14936,1122 14946,1120 14954,1119 14962,1118 14972,1116 14981,1115 14988,1114 14989,1114 14998,1113"/>
 <path fill="none" stroke="rgb(0,69,134)" stroke-width="80" stroke-linejoin="round" d="M 2924,6438 L 2932,6435 2941,6433 2948,6428 2949,6427 2959,6423 2967,6420 2976,6418 2985,6414 2993,6412 2994,6411 3002,6404 3003,6397 3008,6394 3011,6394 3020,6389 3029,6387 3032,6385 3037,6383 3047,6380 3055,6378 3061,6377 3064,6376 3072,6374 3082,6371 3090,6369 3098,6368 3099,6368 3108,6365 3117,6361 3125,6359 3134,6354 3141,6236 3143,6235 3152,6231 3160,6229 3168,6226 3170,6226 3179,6222 3187,6219 3189,6217 3195,6215 3205,6211 3211,6209 3214,6208 3222,6205 3232,6203 3240,6200 3249,6198 3257,6193 3264,6191 3267,6189 3275,6187 3284,6184 3286,6182 3293,6178 3302,6175 3303,6174 3310,6172 3319,6169 3328,6166 3331,6164 3337,6162 3345,6159 3351,6153 3355,6151 3363,6147 3372,6145 3381,6142 3387,6135 3390,6135 3398,6130 3407,6127 3416,6124 3425,6121 3433,6118 3443,6115 3450,6102 3451,6102 3460,6098 3465,6095 3468,6094 3478,6088 3485,6086 3486,6085 3495,6083 3505,6079 3513,6077 3521,6073 3530,6070 3535,6068 3540,6067 3548,6065 3556,6062 3564,6059 3566,6058 3575,6055 3583,6051 3585,6050 3592,6043 3594,6042 3601,6039 3610,6037 3618,6033 3619,6033 3628,6030 3636,6024 3645,6022 3653,6018 3658,6015 3663,6013 3671,6009 3680,6007 3681,6006 3689,6004 3698,6001 3701,5997 3706,5996 3715,5993 3724,5991 3732,5988 3733,5988 3741,5985 3751,5983 3759,5980 3761,5980 3768,5976 3776,5973 3782,5971 3786,5970 3794,5968 3803,5965 3809,5962 3813,5960 3821,5956 3828,5953 3829,5953 3837,5945 3839,5944 3848,5941 3856,5939 3864,5936 3874,5932 3883,5929 3889,5927 3891,5926 3901,5924 3907,5918 3909,5917 3918,5915 3926,5913 3936,5909 3937,5909 3944,5907 3953,5900 3962,5893 3968,5891 3971,5891 3979,5887 3988,5883 3989,5882 3997,5876 4001,5874 4006,5873 4014,5870 4024,5867 4027,5865 4032,5864 4041,5862 4049,5859 4054,5856 4056,5846 4059,5845 4067,5843 4076,5839 4077,5838 4085,5836 4094,5833 4102,5831 4106,5830 4111,5829 4120,5825 4125,5821 4129,5819 4137,5816 4146,5808 4147,5807 4155,5804 4158,5804 4164,5802 4172,5799 4182,5795 4183,5795 4190,5791 4199,5788 4204,5785 4209,5783 4217,5781 4226,5778 4228,5777 4235,5774 4244,5771 4252,5769 4256,5768 4261,5767 4270,5763 4274,5759 4279,5753 4287,5751 4288,5751 4297,5746 4305,5744 4311,5742 4314,5739 4322,5737 4332,5733 4340,5730 4349,5728 4358,5724 4367,5722 4375,5720 4384,5716 4386,5715 4393,5713 4402,5710 4410,5708 4414,5706 4420,5705 4428,5702 4437,5700 4440,5698 4445,5696 4451,5688 4455,5687 4463,5682 4468,5680 4472,5679 4482,5676 4490,5674 4496,5670 4498,5669 4507,5665 4514,5663 4517,5659 4525,5655 4530,5654 4533,5653 4543,5648 4547,5643 4552,5641 4560,5637 4565,5636 4568,5635 4578,5632 4587,5629 4590,5627 4595,5625 4605,5621 4606,5617 4613,5614 4622,5611 4625,5610 4630,5608 4640,5606 4648,5603 4655,5600 4657,5599 4666,5596 4675,5593 4678,5592 4683,5591 4693,5588 4701,5584 4706,5583 4710,5582 4718,5578 4727,5574 4728,5574 4736,5571 4745,5568 4754,5566 4756,5565 4763,5562 4771,5560 4780,5557 4781,5555 4789,5550 4798,5548 4799,5547 4806,5544 4816,5542 4821,5539 4824,5538 4833,5534 4841,5531 4844,5530 4851,5529 4859,5527 4868,5523 4875,5520 4878,5520 4886,5518 4895,5515 4903,5513 4904,5513 4913,5510 4921,5508 4930,5506 4934,5503 4939,5499 4948,5496 4949,5495 4956,5493 4965,5490 4971,5485 4974,5484 4983,5481 4991,5478 4994,5477 5001,5474 5009,5472 5018,5469 5021,5468 5026,5467 5036,5461 5039,5459 5044,5458 5053,5456 5062,5453 5070,5451 5071,5450 5079,5447 5089,5442 5097,5438 5106,5435 5111,5432 5114,5431 5124,5428 5132,5425 5135,5424 5141,5423 5151,5412 5159,5409 5164,5407 5167,5406 5176,5403 5186,5397 5194,5394 5202,5391 5206,5389 5212,5386 5221,5381 5223,5380 5229,5378 5237,5374 5247,5371 5256,5368 5264,5366 5274,5363 5275,5363 5282,5360 5291,5357 5299,5355 5303,5354 5309,5351 5317,5349 5326,5347 5329,5344 5335,5342 5344,5340 5352,5336 5361,5330 5367,5328 5370,5327 5379,5324 5387,5321 5394,5319 5397,5317 5405,5312 5414,5310 5415,5310 5422,5308 5432,5305 5440,5303 5446,5300 5449,5300 5458,5297 5467,5294 5474,5292 5475,5291 5484,5288 5493,5285 5500,5283 5502,5282 5510,5278 5520,5276 5525,5275 5529,5273 5537,5272 5547,5269 5555,5266 5556,5266 5564,5263 5572,5260 5582,5257 5584,5256 5590,5254 5599,5249 5603,5248 5608,5246 5617,5243 5625,5241 5630,5239 5634,5238 5643,5235 5652,5232 5659,5230 5660,5229 5670,5224 5676,5222 5678,5221 5687,5217 5695,5215 5702,5213 5705,5212 5713,5210 5722,5206 5729,5204 5731,5201 5740,5198 5747,5195 5748,5193 5757,5189 5766,5187 5768,5186 5775,5184 5783,5181 5793,5179 5795,5178 5801,5176 5810,5174 5818,5171 5826,5169 5828,5168 5836,5164 5845,5161 5850,5160 5855,5158 5863,5156 5871,5152 5875,5151 5880,5150 5890,5145 5897,5141 5898,5141 5906,5138 5914,5132 5916,5129 5925,5126 5927,5125 5933,5122 5942,5119 5949,5116 5951,5115 5960,5111 5968,5108 5973,5107 5978,5105 5986,5101 5995,5099 5997,5098 6004,5095 6013,5093 6021,5090 6022,5089 6030,5085 6039,5082 6043,5081 6048,5079 6056,5077 6066,5074 6073,5071 6074,5071 6078,5062 6083,5059 6091,5056 6096,5053 6101,5052 6109,5049 6118,5046 6121,5045 6123,4915 6127,4911 6136,4909 6144,4906 6149,4904 6153,4904 6162,4900 6171,4898 6179,4895 6189,4893 6198,4889 6202,4887 6206,4885 6214,4882 6223,4877 6224,4877 6233,4875 6241,4873 6251,4869 6259,4867 6268,4863 6274,4860 6276,4860 6286,4858 6294,4853 6297,4851 6303,4849 6312,4846 6321,4844 6323,4840 6329,4838 6338,4836 6340,4834 6347,4828 6356,4826 6359,4825 6364,4824 6374,4817 6376,4813 6382,4811 6387,4807 6391,4806 6400,4803 6409,4799 6410,4798 6417,4796 6426,4792 6433,4790 6435,4789 6444,4785 6451,4781 6452,4781 6462,4777 6468,4767 6470,4766 6476,4762 6479,4761 6487,4758 6493,4754 6497,4754 6505,4749 6514,4747 6518,4745 6524,4742 6532,4739 6540,4737 6549,4733 6559,4731 6567,4728 6575,4724 6585,4721 6594,4719 6602,4717 6611,4714 6620,4712 6624,4710 6629,4703 6633,4701 6637,4701 6647,4697 6655,4693 6656,4693 6664,4688 6670,4679 6672,4678 6682,4674 6690,4671 6699,4668 6706,4665 6708,4664 6717,4660 6725,4658 6728,4657 6734,4655 6743,4652 6745,4646 6752,4643 6760,4640 6763,4640 6770,4637 6778,4632 6782,4631 6787,4630 6795,4628 6805,4623 6810,4622 6813,4620 6822,4617 6830,4612 6832,4612 6840,4609 6848,4607 6854,4605 6858,4603 6867,4601 6875,4590 6881,4587 6883,4586 6893,4583 6902,4579 6904,4578 6910,4577 6918,4569 6920,4569 6928,4565 6937,4563 6940,4560 6945,4559 6955,4556 6963,4554 6964,4461 6972,4459 6981,4456 6985,4455 6990,4454 6998,4450 7005,4446 7007,4446 7016,4444 7025,4441 7033,4438 7034,4438 7043,4436 7051,4429 7060,4425 7068,4423 7078,4420 7086,4416 7088,4394 7095,4392 7104,4389 7113,4386 7115,4385 7121,4383 7130,4380 7139,4376 7148,4373 7156,4370 7161,4367 7166,4365 7174,4362 7183,4359 7184,4359 7191,4356 7201,4352 7208,4350 7209,4350 7218,4347 7228,4344 7236,4341 7237,4341 7245,4336 7253,4331 7254,4331 7263,4328 7271,4325 7277,4323 7280,4322 7289,4319 7298,4314 7306,4311 7316,4308 7323,4306 7324,4305 7333,4301 7341,4297 7351,4294 7359,4290 7365,4288 7368,4287 7377,4284 7386,4281 7388,4279 7394,4277 7403,4275 7412,4272 7415,4270 7421,4268 7429,4265 7437,4261 7439,4260 7447,4256 7456,4254 7459,4251 7464,4250 7474,4246 7481,4244 7482,4244 7491,4241 7501,4235 7509,4232 7517,4230 7526,4228 7529,4226 7536,4225 7544,4221 7552,4219 7554,4217 7562,4209 7563,4209 7571,4207 7579,4202 7587,4200 7589,4200 7597,4197 7606,4194 7614,4191 7624,4186 7632,4184 7637,4182 7641,4180 7649,4176 7656,4173 7659,4172 7667,4160 7676,4156 7677,4156 7685,4152 7694,4148 7697,4147 7702,4146 7712,4142 7720,4137 7729,4134 7737,4131 7743,4128 7747,4126 7755,4123 7763,4121 7764,4120 7773,4116 7782,4113 7788,4112 7790,4111 7799,4105 7807,4103 7808,4102 7817,4100 7825,4096 7833,4094 7835,4094 7843,4090 7850,4085 7852,4085 7860,4081 7870,4078 7876,4076 7878,4076 7887,4072 7895,4068 7897,4067 7905,4063 7914,4059 7922,4056 7932,4053 7940,4049 7949,4045 7958,4042 7961,4041 7967,4038 7975,4035 7984,4032 7993,4027 8001,4025 8004,4024 8009,4021 8019,4018 8025,4015 8027,4014 8036,4012 8044,4009 8049,4006 8054,4004 8062,4003 8071,3998 8073,3996 8080,3994 8089,3991 8097,3989 8098,3988 8107,3986 8115,3983 8124,3981 8127,3977 8132,3976 8142,3973 8146,3969 8150,3968 8159,3962 8160,3962 8169,3957 8177,3954 8182,3953 8185,3952 8194,3949 8204,3947 8212,3944 8213,3944 8220,3941 8230,3939 8236,3934 8239,3934 8247,3931 8255,3928 8257,3919 8258,3918 8265,3915 8274,3912 8282,3909 8283,3909 8292,3907 8300,3904 8309,3902 8312,3900 8317,3899 8327,3897 8335,3894 8341,3891 8344,3890 8353,3886 8361,3881 8362,3881 8369,3852 8370,3851 8379,3847 8380,3847 8388,3843 8397,3841 8403,3838 8405,3837 8415,3834 8423,3831 8431,3830 8432,3829 8440,3824 8450,3821 8452,3821 8458,3819 8467,3815 8470,3812 8476,3810 8485,3807 8493,3803 8499,3789 8502,3787 8507,3786 8511,3783 8520,3781 8528,3779 8538,3777 8539,3777 8547,3772 8555,3769 8559,3766 8565,3765 8573,3761 8580,3758 8582,3758 8590,3755 8600,3752 8608,3750 8614,3729 8617,3728 8626,3726 8629,3724 8635,3721 8643,3718 8650,3715 8652,3715 8661,3711 8670,3709 8678,3706 8688,3701 8696,3699 8701,3697 8705,3689 8710,3688 8713,3687 8722,3679 8723,3679 8731,3677 8740,3675 8749,3671 8752,3671 8758,3668 8763,3662 8766,3661 8775,3659 8784,3656 8793,3654 8795,3653 8801,3647 8810,3644 8811,3644 8819,3642 8828,3636 8829,3636 8836,3633 8846,3630 8854,3627 8856,3627 8863,3624 8871,3618 8873,3618 8881,3614 8889,3611 8891,3609 8898,3605 8908,3603 8915,3600 8916,3600 8924,3596 8933,3591 8934,3591 8943,3586 8951,3583 8960,3580 8969,3577 8976,3573 8978,3573 8986,3571 8996,3568 9004,3565 9013,3563 9015,3554 9022,3553 9031,3550 9037,3547 9039,3547 9048,3543 9057,3541 9066,3539 9074,3535 9084,3530 9092,3528 9101,3525 9109,3523 9114,3521 9119,3518 9127,3512 9136,3509 9145,3504 9147,3503 9154,3501 9162,3499 9171,3497 9174,3494 9180,3492 9189,3487 9193,3485 9197,3483 9207,3478 9212,3477 9216,3474 9224,3468 9232,3466 9242,3463 9249,3459 9251,3459 9259,3457 9269,3453 9277,3451 9278,3451 9286,3447 9294,3444 9300,3442 9304,3441 9312,3436 9321,3434 9325,3433 9330,3431 9334,3422 9339,3420 9347,3418 9356,3417 9362,3414 9365,3414 9374,3410 9382,3407 9386,3406 9392,3401 9400,3399 9403,3397 9409,3396 9418,3392 9427,3389 9428,3389 9435,3386 9444,3384 9453,3380 9455,3380 9462,3378 9469,3370 9470,3369 9480,3367 9488,3365 9497,3362 9505,3359 9515,3357 9523,3355 9527,3353 9532,3352 9542,3347 9550,3345 9551,3344 9558,3342 9567,3339 9577,3336 9585,3332 9593,3330 9597,3323 9603,3322 9609,3318 9612,3317 9620,3311 9626,3309 9629,3308 9638,3305 9647,3303 9649,3300 9655,3299 9665,3296 9673,3292 9674,3292 9682,3289 9690,3286 9696,3283 9700,3281 9708,3279 9717,3274 9718,3271 9726,3268 9735,3266 9737,3264 9743,3262 9752,3256 9761,3253 9770,3251 9778,3248 9781,3248 9788,3245 9796,3243 9805,3240 9806,3239 9813,3235 9823,3232 9828,3230 9831,3229 9840,3226 9850,3222 9853,3221 9858,3218 9866,3216 9876,3213 9877,3212 9885,3211 9893,3207 9901,3205 9905,3204 9911,3202 9920,3198 9924,3194 9928,3194 9938,3191 9946,3188 9951,3186 9955,3184 9963,3182 9973,3180 9981,3177 9982,3177 9990,3175 9999,3171 10008,3168 10016,3166 10025,3163 10034,3160 10043,3156 10051,3153 10061,3151 10063,3150 10069,3149 10078,3145 10086,3143 10087,3141 10096,3139 10104,3136 10106,3133 10113,3130 10122,3126 10128,3124 10131,3124 10139,3121 10148,3117 10151,3115 10157,3112 10166,3110 10174,3107 10176,3107 10184,3103 10192,3098 10194,3098 10201,3096 10209,3092 10214,3089 10219,3086 10227,3084 10236,3082 10240,3079 10246,3076 10254,3072 10256,3063 10258,3063 10263,3061 10272,3056 10278,3054 10281,3053 10289,3048 10298,3045 10299,3045 10307,3042 10314,3036 10316,3036 10324,3032 10330,3027 10334,3025 10342,3020 10349,3018 10351,3018 10359,3015 10369,3011 10372,3010 10377,3008 10386,3006 10395,3003 10398,3001 10404,2998 10412,2993 10416,2992 10421,2990 10430,2987 10439,2985 10445,2983 10447,2982 10457,2979 10465,2977 10473,2974 10474,2974 10482,2971 10492,2969 10493,2965 10500,2962 10509,2960 10511,2955 10519,2953 10527,2950 10533,2948 10535,2947 10544,2945 10551,2934 10554,2933 10562,2931 10563,2930 10570,2929 10580,2924 10589,2922 10590,2921 10597,2918 10605,2916 10615,2914 10620,2912 10624,2911 10632,2907 10642,2905 10645,2904 10650,2902 10659,2897 10665,2895 10667,2894 10677,2891 10685,2888 10689,2886 10694,2885 10703,2881 10708,2877 10712,2876 10720,2872 10730,2869 10733,2868 10738,2866 10747,2863 10755,2861 10759,2855 10765,2854 10773,2851 10775,2848 10782,2845 10789,2842 10791,2841 10800,2839 10808,2836 10814,2833 10817,2832 10826,2829 10835,2825 10836,2824 10843,2822 10853,2816 10861,2811 10870,2807 10871,2807 10878,2804 10888,2801 10892,2796 10896,2795 10905,2792 10915,2790 10916,2789 10923,2787 10932,2784 10940,2782 10946,2780 10950,2778 10958,2773 10964,2771 10967,2770 10976,2767 10985,2762 10993,2760 11002,2758 11011,2754 11012,2754 11020,2751 11028,2748 11038,2745 11039,2745 11046,2743 11055,2739 11063,2737 11064,2735 11073,2732 11081,2728 11085,2727 11090,2726 11099,2723 11108,2721 11111,2718 11116,2716 11126,2710 11134,2708 11143,2704 11151,2702 11154,2701 11161,2698 11169,2694 11175,2692 11178,2691 11188,2688 11196,2686 11201,2683 11204,2681 11213,2678 11223,2675 11224,2675 11231,2673 11239,2669 11249,2667 11254,2665 11258,2663 11266,2655 11274,2652 11284,2640 11289,2639 11293,2636 11301,2634 11311,2631 11319,2628 11328,2623 11332,2622 11336,2621 11346,2618 11354,2616 11363,2614 11366,2613 11372,2611 11381,2608 11388,2603 11389,2603 11398,2599 11407,2597 11412,2595 11416,2593 11424,2590 11434,2588 11440,2587 11442,2584 11451,2579 11454,2577 11459,2576 11469,2574 11477,2570 11482,2568 11486,2566 11495,2563 11504,2561 11508,2560 11509,2551 11512,2548 11521,2546 11530,2543 11532,2542 11539,2540 11547,2536 11557,2534 11559,2533 11566,2531 11574,2528 11580,2525 11584,2523 11592,2520 11601,2516 11602,2516 11609,2513 11616,2507 11619,2506 11627,2501 11636,2499 11638,2498 11645,2497 11654,2493 11662,2491 11666,2487 11671,2484 11680,2482 11684,2479 11689,2478 11697,2475 11702,2472 11707,2470 11715,2466 11719,2460 11724,2459 11732,2456 11735,2454 11742,2450 11750,2447 11754,2445 11759,2444 11768,2439 11773,2436 11777,2435 11785,2433 11794,2430 11801,2428 11803,2427 11812,2425 11820,2422 11823,2419 11830,2417 11838,2415 11847,2413 11855,2411 11857,2410 11865,2408 11873,2406 11882,2403 11889,2401 11892,2401 11900,2398 11908,2395 11917,2393 11921,2392 11927,2390 11935,2386 11942,2383 11943,2383 11953,2379 11962,2375 11970,2369 11971,2361 11979,2359 11980,2355 11988,2353 11997,2349 11998,2348 12005,2346 12015,2342 12023,2340 12032,2336 12041,2333 12050,2331 12051,2331 12058,2329 12067,2326 12076,2323 12080,2321 12085,2317 12093,2314 12097,2313 12103,2311 12111,2309 12114,2303 12120,2300 12128,2298 12138,2295 12146,2291 12155,2289 12157,2287 12164,2284 12173,2280 12179,2277 12181,2276 12190,2273 12199,2270 12203,2269 12208,2267 12216,2263 12226,2261 12230,2257 12235,2256 12243,2253 12248,2251 12251,2249 12261,2247 12270,2244 12273,2242 12278,2240 12288,2237 12296,2235 12300,2233 12305,2231 12313,2229 12320,2225 12323,2224 12331,2220 12340,2217 12346,2216 12349,2215 12358,2211 12366,2209 12373,2207 12375,2207 12384,2203 12393,2201 12399,2198 12401,2196 12411,2192 12419,2190 12428,2187 12437,2183 12446,2181 12447,2181 12454,2177 12463,2174 12468,2172 12472,2171 12481,2168 12489,2166 12499,2164 12501,2163 12507,2162 12516,2160 12524,2157 12530,2154 12534,2153 12542,2150 12551,2145 12561,2142 12569,2139 12574,2137 12577,2136 12586,2131 12594,2126 12596,2126 12604,2124 12611,2119 12612,2119 12622,2114 12631,2111 12633,2110 12639,2108 12648,2106 12657,2103 12662,2101 12666,2099 12674,2096 12684,2094 12687,2093 12692,2091 12701,2089 12709,2086 12715,2083 12719,2081 12727,2078 12736,2076 12739,2075 12745,2073 12754,2070 12761,2066 12762,2066 12771,2061 12780,2057 12789,2052 12797,2048 12807,2043 12815,2041 12820,2040 12824,2039 12832,2035 12835,2028 12842,2025 12843,2015 12848,2013 12850,2012 12859,2009 12869,2005 12872,2004 12877,2000 12885,1997 12893,1996 12895,1995 12904,1991 12912,1987 12913,1987 12920,1983 12930,1981 12939,1979 12941,1978 12947,1976 12957,1974 12965,1972 12974,1970 12977,1969 12982,1968 12992,1963 13000,1960 13009,1958 13018,1955 13027,1953 13030,1951 13035,1950 13044,1947 13053,1945 13061,1941 13062,1941 13070,1938 13080,1934 13082,1934 13088,1932 13097,1927 13105,1925 13115,1922 13123,1918 13128,1916 13132,1915 13141,1913 13150,1910 13157,1908 13158,1907 13167,1903 13176,1900 13180,1899 13185,1897 13193,1893 13203,1891 13204,1889 13211,1887 13220,1885 13228,1873 13231,1872 13238,1870 13246,1867 13255,1865 13259,1863 13265,1862 13273,1859 13282,1855 13284,1854 13291,1852 13300,1849 13308,1846 13317,1841 13326,1839 13331,1829 13332,1828 13335,1828 13343,1825 13344,1819 13353,1816 13361,1809 13370,1806 13378,1804 13387,1802 13388,1801 13396,1799 13405,1795 13412,1793 13414,1792 13423,1788 13431,1784 13440,1782 13449,1777 13457,1775 13458,1775 13466,1771 13476,1768 13481,1766 13484,1765 13493,1763 13501,1761 13509,1758 13511,1757 13519,1754 13528,1751 13536,1748 13538,1748 13546,1745 13554,1741 13557,1739 13563,1737 13571,1730 13573,1730 13581,1719 13589,1717 13599,1715 13605,1712 13608,1709 13616,1707 13623,1704 13624,1704 13634,1701 13643,1699 13646,1695 13651,1692 13661,1689 13667,1686 13669,1686 13678,1680 13686,1677 13696,1674 13704,1672 13713,1670 13715,1669 13722,1667 13731,1662 13737,1660 13739,1660 13749,1657 13757,1654 13766,1652 13774,1649 13784,1645 13791,1643 13792,1643 13801,1638 13809,1634 13810,1633 13819,1630 13827,1627 13832,1625 13836,1624 13845,1620 13854,1618 13856,1616 13862,1613 13872,1610 13873,1606 13880,1603 13889,1600 13893,1598 13897,1597 13907,1593 13915,1591 13918,1590 13924,1588 13934,1585 13942,1583 13944,1580 13951,1578 13959,1575 13964,1573 13969,1571 13977,1569 13986,1565 13989,1563 13995,1560 14004,1557 14011,1553 14012,1552 14021,1550 14030,1545 14039,1543 14040,1511 14042,1509 14047,1507 14057,1505 14064,1502 14065,1502 14074,1497 14077,1492 14082,1491 14092,1488 14100,1484 14109,1482 14118,1480 14127,1478 14129,1475 14135,1473 14145,1470 14153,1467 14156,1466 14162,1464 14170,1462 14180,1456 14188,1454 14197,1452 14205,1449 14207,1449 14215,1446 14223,1443 14229,1440 14232,1438 14242,1436 14250,1433 14258,1432 14268,1428 14277,1424 14278,1423 14285,1418 14293,1416 14302,1414 14303,1413 14312,1409 14320,1405 14321,1405 14330,1402 14338,1399 14344,1394 14347,1393 14355,1389 14360,1386 14365,1382 14373,1380 14378,1379 14382,1376 14391,1374 14400,1371 14405,1370 14408,1368 14417,1365 14426,1362 14431,1357 14435,1356 14443,1352 14453,1348 14461,1346 14469,1343 14470,1343 14478,1338 14488,1336 14494,1315 14496,1314 14505,1310 14513,1308 14514,1307 14523,1305 14531,1302 14540,1300 14542,1298 14549,1294 14558,1292 14562,1290 14566,1288 14576,1284 14583,1282 14585,1281 14593,1277 14603,1274 14610,1272 14611,1272 14620,1269 14628,1266 14634,1264 14638,1263 14646,1260 14655,1256 14659,1255 14664,1252 14673,1250 14681,1246 14690,1241 14698,1237 14699,1236 14708,1234 14716,1228 14726,1224 14734,1220 14737,1220 14743,1217 14751,1215 14756,1210 14761,1208 14769,1205 14777,1201 14778,1201 14787,1193 14796,1191 14804,1188 14813,1184 14822,1180 14831,1178 14834,1175 14839,1173 14849,1171 14857,1166 14866,1160 14871,1158 14874,1157 14884,1154 14892,1152 14901,1149 14902,1148 14911,1145 14919,1142 14921,1139 14927,1137 14936,1134 14946,1132 14954,1128 14962,1125 14967,1123 14972,1121 14981,1118 14989,1116 14993,1114 14998,1113"/>
 <text class="TextShape"><tspan class="TextParagraph" font-family="Liberation Sans, sans-serif" font-size="353px" font-weight="400"><tspan class="TextPosition" x="2826" y="7007"><tspan fill="rgb(0,0,0)" stroke="none">0</tspan></tspan></tspan></text>
 <text class="TextShape"><tspan class="TextParagraph" font-family="Liberation Sans, sans-serif" font-size="353px" font-weight="400"><tspan class="TextPosition" x="3742" y="7007"><tspan fill="rgb(0,0,0)" stroke="none">1000</tspan></tspan></tspan></text>
 <text class="TextShape"><tspan class="TextParagraph" font-family="Liberation Sans, sans-serif" font-size="353px" font-weight="400"><tspan class="TextPosition" x="4950" y="7007"><tspan fill="rgb(0,0,0)" stroke="none">2000</tspan></tspan></tspan></text>
 <text class="TextShape"><tspan class="TextParagraph" font-family="Liberation Sans, sans-serif" font-size="353px" font-weight="400"><tspan class="TextPosition" x="6157" y="7007"><tspan fill="rgb(0,0,0)" stroke="none">3000</tspan></tspan></tspan></text>
 <text class="TextShape"><tspan class="TextParagraph" font-family="Liberation Sans, sans-serif" font-size="353px" font-weight="400"><tspan class="TextPosition" x="7365" y="7007"><tspan fill="rgb(0,0,0)" stroke="none">4000</tspan></tspan></tspan></text>
 <text class="TextShape"><tspan class="TextParagraph" font-family="Liberation Sans, sans-serif" font-size="353px" font-weight="400"><tspan class="TextPosition" x="8573" y="7007"><tspan fill="rgb(0,0,0)" stroke="none">5000</tspan></tspan></tspan></text>
 <text class="TextShape"><tspan class="TextParagraph" font-family="Liberation Sans, sans-serif" font-size="353px" font-weight="400"><tspan class="TextPosition" x="9780" y="7007"><tspan fill="rgb(0,0,0)" stroke="none">6000</tspan></tspan></tspan></text>
 <text class="TextShape"><tspan class="TextParagraph" font-family="Liberation Sans, sans-serif" font-size="353px" font-weight="400"><tspan class="TextPosition" x="10988" y="7007"><tspan fill="rgb(0,0,0)" stroke="none">7000</tspan></tspan></tspan></text>
 <text class="TextShape"><tspan class="TextParagraph" font-family="Liberation Sans, sans-serif" font-size="353px" font-weight="400"><tspan class="TextPosition" x="12195" y="7007"><tspan fill="rgb(0,0,0)" stroke="none">8000</tspan></tspan></tspan></text>
 <text class="TextShape"><tspan class="TextParagraph" font-family="Liberation Sans, sans-serif" font-size="353px" font-weight="400"><tspan class="TextPosition" x="13403" y="7007"><tspan fill="rgb(0,0,0)" stroke="none">9000</tspan></tspan></tspan></text>
 <text class="TextShape"><tspan class="TextParagraph" font-family="Liberation Sans, sans-serif" font-size="353px" font-weight="400"><tspan class="TextPosition" x="14514" y="7007"><tspan fill="rgb(0,0,0)" stroke="none">10000</tspan></tspan></tspan></text>
 <text class="TextShape"><tspan class="TextParagraph" font-family="Liberation Sans, sans-serif" font-size="353px" font-weight="400"><tspan class="TextPosition" x="2479" y="6564"><tspan fill="rgb(0,0,0)" stroke="none">0</tspan></tspan></tspan></text>
 <text class="TextShape"><tspan class="TextParagraph" font-family="Liberation Sans, sans-serif" font-size="353px" font-weight="400"><tspan class="TextPosition" x="1315" y="5805"><tspan fill="rgb(0,0,0)" stroke="none">2000000</tspan></tspan></tspan></text>
 <text class="TextShape"><tspan class="TextParagraph" font-family="Liberation Sans, sans-serif" font-size="353px" font-weight="400"><tspan class="TextPosition" x="1315" y="5047"><tspan fill="rgb(0,0,0)" stroke="none">4000000</tspan></tspan></tspan></text>
 <text class="TextShape"><tspan class="TextParagraph" font-family="Liberation Sans, sans-serif" font-size="353px" font-weight="400"><tspan class="TextPosition" x="1315" y="4289"><tspan fill="rgb(0,0,0)" stroke="none">6000000</tspan></tspan></tspan></text>
 <text class="TextShape"><tspan class="TextParagraph" font-family="Liberation Sans, sans-serif" font-size="353px" font-weight="400"><tspan class="TextPosition" x="1315" y="3531"><tspan fill="rgb(0,0,0)" stroke="none">8000000</tspan></tspan></tspan></text>
 <text class="TextShape"><tspan class="TextParagraph" font-family="Liberation Sans, sans-serif" font-size="353px" font-weight="400"><tspan class="TextPosition" x="1121" y="2772"><tspan fill="rgb(0,0,0)" stroke="none">10000000</tspan></tspan></tspan></text>
 <text class="TextShape"><tspan class="TextParagraph" font-family="Liberation Sans, sans-serif" font-size="353px" font-weight="400"><tspan class="TextPosition" x="1121" y="2014"><tspan fill="rgb(0,0,0)" stroke="none">12000000</tspan></tspan></tspan></text>
 <text class="TextShape"><tspan class="TextParagraph" font-family="Liberation Sans, sans-serif" font-size="353px" font-weight="400"><tspan class="TextPosition" x="1121" y="1256"><tspan fill="rgb(0,0,0)" stroke="none">14000000</tspan></tspan></tspan></text>
 <text class="TextShape"><tspan class="TextParagraph" font-family="Liberation Sans, sans-serif" font-size="353px" font-weight="400"><tspan class="TextPosition" x="1121" y="498"><tspan fill="rgb(0,0,0)" stroke="none">16000000</tspan></tspan></tspan></text>
 <path fill="none" stroke="rgb(0,69,134)" stroke-width="80" stroke-linejoin="round" d="M 5712,8701 L 6512,8701"/>
 <path fill="none" stroke="rgb(87,157,28)" stroke-width="80" stroke-linejoin="round" d="M 8168,8701 L 8968,8701"/>
 <text class="TextShape"><tspan class="TextParagraph" font-family="Liberation Sans, sans-serif" font-size="353px" font-weight="400"><tspan class="TextPosition" x="6612" y="8825"><tspan fill="rgb(0,0,0)" stroke="none">Random</tspan></tspan></tspan></text>
 <text class="TextShape"><tspan class="TextParagraph" font-family="Liberation Sans, sans-serif" font-size="353px" font-weight="400"><tspan class="TextPosition" x="9068" y="8825"><tspan fill="rgb(0,0,0)" stroke="none">Optimal</tspan></tspan></tspan></text>
 <text class="TextShape"><tspan class="TextParagraph" font-family="Liberation Sans, sans-serif" font-size="318px" font-weight="400"><tspan class="TextPosition" x="7871" y="7638"><tspan fill="rgb(0,0,0)" stroke="none">Guesses</tspan></tspan></tspan></text>
 <text class="TextShape" transform="translate(828,4651) rotate(-90) translate(-828,-4651)"><tspan class="TextParagraph" font-family="Liberation Sans, sans-serif" font-size="318px" font-weight="400"><tspan class="TextPosition" x="828" y="4651"><tspan fill="rgb(0,0,0)" stroke="none">PINs Guessed</tspan></tspan></tspan></text>
</svg>